<?xml version="1.0" standalone="no"?>
<!DOCTYPE svg PUBLIC "-//W3C//DTD SVG 20010904//EN"
 "http://www.w3.org/TR/2001/REC-SVG-20010904/DTD/svg10.dtd">
<svg version="1.0" xmlns="http://www.w3.org/2000/svg"
 width="600.000000pt" height="600.000000pt" viewBox="0 0 600.000000 600.000000"
 preserveAspectRatio="xMidYMid meet">
<metadata>
Created by potrace 1.11, written by Peter Selinger 2001-2013
</metadata>
<g transform="translate(0.000000,600.000000) scale(0.100000,-0.100000)"
fill="#000000" stroke="none">
<path d="M500 4758 l0 -743 350 0 350 0 1 -30 c0 -16 1 -156 1 -310 l0 -280
-333 -2 c-184 -1 -342 -2 -352 -2 -16 -1 -17 -41 -15 -743 l3 -743 388 0 c251
0 387 3 388 10 1 5 2 163 2 350 l2 340 663 1 662 2 0 -309 c0 -240 -3 -309
-12 -310 -7 -1 -162 -2 -345 -3 -182 0 -335 -5 -340 -9 -4 -5 -8 -181 -8 -392
l0 -383 310 0 c171 0 329 -1 353 -1 l42 -1 0 -310 0 -310 -663 0 -663 0 0 342
c1 230 -2 345 -10 352 -7 8 -128 10 -380 9 -203 -1 -375 -2 -382 -2 -10 -1
-12 -81 -10 -382 3 -351 4 -383 21 -393 12 -8 22 -8 35 0 16 10 17 40 20 353
1 187 6 341 10 342 60 4 605 0 609 -5 4 -3 6 -161 6 -351 l-1 -345 744 0 744
0 0 390 c0 305 -3 390 -12 391 -7 0 -165 1 -350 1 -302 1 -338 3 -339 17 -7
101 -2 601 6 602 6 1 163 2 350 3 l340 1 3 392 2 393 -742 -3 -743 -2 -2 -340
c-1 -187 -2 -344 -2 -350 -1 -6 -111 -10 -309 -10 l-307 0 -3 662 -2 663 352
2 352 3 0 383 c1 211 -1 387 -4 391 -3 4 -160 6 -350 6 l-345 0 -3 663 -2 662
310 0 310 0 1 -27 c0 -16 1 -171 1 -346 1 -205 5 -320 11 -324 6 -3 182 -7
392 -7 l381 -1 0 350 0 350 312 3 312 2 0 -659 c0 -518 -3 -660 -12 -663 -7
-2 -165 -4 -350 -3 -221 0 -339 -3 -341 -10 -2 -5 -3 -181 -3 -390 l1 -380
1090 -2 c612 -1 1092 2 1095 7 4 7 5 729 1 765 -1 7 -116 10 -338 10 -186 -1
-344 1 -350 3 -10 3 -13 145 -13 663 l0 659 313 0 312 0 0 -349 c-1 -308 1
-350 15 -353 8 -2 184 -3 390 -2 l375 0 1 350 1 349 311 3 312 2 0 -662 0
-663 -346 0 c-207 0 -348 -3 -352 -9 -7 -12 -9 -755 -2 -767 3 -5 162 -7 353
-6 l347 2 -2 -665 -3 -665 -303 0 c-167 0 -306 4 -309 9 -3 5 -6 163 -6 352
l0 343 -744 0 -743 1 2 -393 3 -392 345 0 c264 0 346 -2 350 -12 4 -10 5 -579
1 -604 -1 -3 -151 -6 -333 -7 -183 0 -341 -1 -350 -1 -17 -1 -18 -27 -18 -391
l0 -390 744 0 743 0 -1 350 c-1 327 0 350 17 351 22 1 561 1 587 0 19 -1 20
-10 22 -342 3 -313 4 -343 21 -353 12 -8 22 -8 35 0 16 10 17 42 20 393 1 209
-1 381 -5 382 -5 0 -178 1 -386 2 -328 2 -380 0 -386 -13 -3 -8 -6 -167 -6
-353 l1 -337 -663 0 -663 0 0 313 0 312 352 0 353 0 0 390 0 390 -340 1 c-187
1 -346 2 -352 3 -10 1 -13 70 -13 310 l0 308 663 -1 662 -1 0 -347 c0 -192 2
-349 5 -349 3 -1 179 -2 393 -3 l387 -1 -2 744 -3 743 -347 0 c-317 0 -348 1
-349 16 -4 89 -1 590 3 598 4 5 145 9 352 9 l346 -1 0 743 0 743 -392 -2 -392
-3 0 -347 c0 -309 -1 -348 -15 -349 -115 -4 -594 1 -599 6 -4 4 -7 160 -7 348
l0 342 -393 3 -392 2 2 -742 3 -743 348 0 c226 0 347 -3 348 -10 3 -34 4 -592
1 -602 -5 -16 -2020 -15 -2024 1 -3 9 -2 555 1 596 1 13 45 15 339 14 185 0
343 2 350 4 9 3 12 161 12 743 l0 739 -392 -2 -393 -3 0 -342 c0 -188 -3 -344
-7 -348 -5 -5 -453 -9 -594 -6 -20 1 -20 4 -20 349 l0 347 -392 3 -392 2 0
-742z"/>
</g>
</svg>
